<svg
  xmlns="http://www.w3.org/2000/svg"
  xmlns:xlink="http://www.w3.org/1999/xlink"
  version="1.1"
  width="28"
  height="30"
  viewBox="0 0 100 100"
>
  <defs>
    <g id="background">
      <path
        fill="url(#background-gradient)"
        stroke="none"
        d=" M 95.3 31.9 Q 95.3 28.55 93.25 25 91.2 21.4 88.25 19.75 L 57 1.65 Q 54.1 0 50 0 45.9 0 43 1.65 L 11.7 19.75 Q 8.8 21.4 6.75 25 4.7 28.55 4.7 31.9 L 4.7 68.15 Q 4.7 71.45 6.75 75.05 8.8 78.6 11.7 80.25 L 43 98.35 Q 45.9 100 50 100 54.1 100 57 98.35 L 88.25 80.25 Q 91.2 78.6 93.25 75.05 95.3 71.45 95.3 68.15 L 95.3 31.9 Z"
      />
    </g>

    <linearGradient id="background-gradient" x1="0" y1="0" y2="1" x2="0">
      <stop stop-color="#000000" offset="100%" />
    </linearGradient>

    <g
      transform="scale(2.07900181519293) translate(0.15000247955322266 0.0000069141387939453125)"
      id="picture"
    >
      <path
        d="M42.4 20.1H22c-1 0-1.2.6-.5 1.3l7.1 7.1-11.8 11.6c-.7.7-.7 1.8 0 2.5l4.8 4.8c.7.7 1.8.7 2.5 0l11.7-11.7 7.1 7c.7.7 1.3.5 1.3-.5V21.9c0-1-.8-1.8-1.8-1.8z M41.9 0h-30c-1.5 0-1.9.8-.9 1.9l10.4 10.4L4.3 29.4c-1 1-1 2.7 0 3.7l7.1 7.1c.8.8 1.9 1 2.8.6.1-.8.5-1.6 1.1-2.2l10.1-10.1-5.5-5.5c-1-1-1.3-2.2-.8-3.2.4-1.1 1.5-1.7 2.9-1.7h20.4c.8 0 1.5.2 2.1.6v-16c0-1.5-1.2-2.7-2.6-2.7z"
      />
    </g>

    <linearGradient id="picture-gradient" x1="0" y1="0" y2="1" x2="0">
      <stop stop-color="#ffffff" offset="100%" />
    </linearGradient>
  </defs>

  <use xlink:href="#background" fill="url(#background-gradient)" />

  <g mask="url(#mask)">
    <g
      transform="
					translate(
							50 50
)
						translate(0 0) rotate(10) scale(0.5)  
						translate(
							-50 -50
)"
    >
      <use xlink:href="#picture" fill="url(#picture-gradient)" />
    </g>
  </g>
</svg>
